<!DOCTYPE svg PUBLIC "-//W3C//DTD SVG 1.1//EN" "http://www.w3.org/Graphics/SVG/1.1/DTD/svg11.dtd">
<!-- Uploaded to: SVG Repo, www.svgrepo.com, Transformed by: SVG Repo Mixer Tools -->
<svg fill="#727378" version="1.1" id="Capa_1" xmlns="http://www.w3.org/2000/svg" xmlns:xlink="http://www.w3.org/1999/xlink" width="800px" height="800px" viewBox="0 0 46 46" xml:space="preserve">
<g id="SVGRepo_bgCarrier" stroke-width="0"/>
<g id="SVGRepo_tracerCarrier" stroke-linecap="round" stroke-linejoin="round"/>
<g id="SVGRepo_iconCarrier"> <g> <path d="M22.5,17.978c-3.114-0.115-5.563-2.812-5.563-5.978c0-3.313,2.687-6,6-6c2.049,0,3.856,1.03,4.937,2.6 c0.603,0.875,1.601,1.4,2.663,1.4h0.188c1.262,0,2.408-0.735,2.936-1.881s0.337-2.494-0.484-3.452C30.725,1.81,27.1,0,23.031,0 C15.541,0,9.5,6.072,9.5,13.563V42.77c0,1.785,1.446,3.23,3.23,3.23h20.54c1.785,0,3.23-1.445,3.23-3.23V21.248 c0-0.859-0.342-1.683-0.951-2.289s-1.434-0.945-2.293-0.941C29.698,18.033,24.259,18.043,22.5,17.978z"/> </g> </g>
</svg>